# xmcd
#
# Track frame offsets:
#	150
#	44346
#	99284
#	111925
#	122678
#	145459
#	158780
#	177831
#	209716
#
# Disc length: 3163 seconds
#
# Revision: 2
# Processed by: cddbd v1.5.1PL2 Copyright (c) Steve Scherf et al.
# Submitted via: EasyCDDAExtractor 8.0.2.1
#
DISCID=7f0c5909
DTITLE=Dio - Valbyhallen Copenhagen 21-04-86 Disc 2
DYEAR=1986
DGENRE=Hard Rock
TTITLE0=Keyboard Solo
TTITLE1=Sacred Heart
TTITLE2=Rock and Roll Children
TTITLE3=Long Live Rock and Roll
TTITLE4=Man On The Silver Mountain
TTITLE5=Rock and Roll Children Reprise
TTITLE6=Stand Up And Shout
TTITLE7=Rainbow In The Dark
TTITLE8=We Rock
EXTD=
EXTT0=
EXTT1=
EXTT2=
EXTT3=
EXTT4=
EXTT5=
EXTT6=
EXTT7=
EXTT8=
PLAYORDER=
